<?xml version="1.0" encoding="utf-8"?>
<!-- Generator: Adobe Illustrator 19.0.0, SVG Export Plug-In . SVG Version: 6.00 Build 0)  -->
<svg version="1.1" xmlns="http://www.w3.org/2000/svg" xmlns:xlink="http://www.w3.org/1999/xlink" x="0px" y="0px"
	 viewBox="0 0 512 512" style="enable-background:new 0 0 512 512;" xml:space="preserve">
<g id="Layer_1">
</g>
<g id="Layer_2">
	<path id="XMLID_6_" d="M473,143.7C473,87,427,41,370.3,41H145.7C89,41,43,87,43,143.7v224.7C43,425,89,471,145.7,471h224.7
		C427,471,473,425,473,368.3V143.7z M431.6,288.9l-0.9,4.5c-1.9,9.4-11.2,15.5-20.5,13.6l-15.2-3v21.9c0,9.5-7.4,17.1-17,17.1h-4.6
		c-9.5,0-17.4-7.5-17.4-17.1v-29.8l-43-8.6v38.4c0,9.5-7.8,17.1-17.3,17.1h-4.6c-9.5,0-17.1-7.5-17.1-17.1v-46.3l-39-7.7v54
		c0,9.5-7.6,17.1-17.1,17.1h-4.6c-9.5,0-17.3-7.5-17.3-17.1V264l-40-8v69.9c0,9.5-7.9,17.1-17.4,17.1H134c-9.5,0-17-7.5-17-17.1
		v-77.8l-22.9-4.6c-9.4-1.9-15.7-11.1-13.8-20.4l1-4.5c1.9-9.4,11.2-15.5,20.5-13.6l15.2,3v-21.9c0-9.5,7.4-17.1,17-17.1h4.6
		c9.5,0,17.4,7.5,17.4,17.1v29.8l40,8v-37.8c0-9.5,7.7-17.1,17.3-17.1h4.6c9.5,0,17.1,7.5,17.1,17.1v45.7l39,7.7v-53.4
		c0-9.5,7.6-17.1,17.1-17.1h4.6c9.5,0,17.3,7.5,17.3,17.1v61.3l43,8.6v-69.9c0-9.5,7.9-17.1,17.4-17.1h4.6c9.5,0,17,7.5,17,17.1
		v77.8l22.9,4.6C427.3,270.3,433.5,279.5,431.6,288.9z"/>
</g>
</svg>
