<?xml version="1.0" standalone="no"?>
<!DOCTYPE svg PUBLIC "-//W3C//DTD SVG 20010904//EN"
 "http://www.w3.org/TR/2001/REC-SVG-20010904/DTD/svg10.dtd">
<svg version="1.0" xmlns="http://www.w3.org/2000/svg"
 width="896.000000pt" height="896.000000pt" viewBox="0 0 896.000000 896.000000"
 preserveAspectRatio="xMidYMid meet">
<metadata>
Created by potrace 1.11, written by Peter Selinger 2001-2013
</metadata>
<g transform="translate(0.000000,896.000000) scale(0.100000,-0.100000)"
fill="#000000" stroke="none">
<path d="M1870 8945 c-487 -67 -911 -277 -1248 -617 -173 -175 -283 -328 -392
-543 -94 -185 -178 -433 -196 -579 -3 -22 -7 -47 -9 -54 -3 -7 -8 -40 -12 -75
-10 -76 -11 -5138 -1 -5187 4 -19 9 -57 13 -85 4 -27 20 -106 36 -174 136
-560 506 -1054 1005 -1343 256 -147 549 -243 844 -276 86 -9 5057 -9 5140 0
57 7 104 14 214 34 22 4 121 30 181 48 6 1 30 8 54 15 24 7 51 16 60 21 9 5
39 18 67 29 438 176 822 513 1055 926 128 226 222 498 254 730 4 28 11 77 15
110 5 33 8 1181 8 2550 1 2659 2 2567 -48 2804 -19 90 -67 253 -90 306 -5 11
-21 49 -36 85 -90 209 -235 435 -384 594 -38 41 -100 102 -179 176 -148 138
-442 311 -672 394 -97 35 -307 90 -389 101 -25 4 -58 9 -75 12 -16 4 -1175 8
-2575 9 -2051 2 -2563 -1 -2640 -11z m260 -2681 c98 -36 199 -158 216 -260 3
-23 7 -186 8 -364 l1 -324 110 -22 c60 -13 121 -25 135 -28 14 -2 36 -7 50
-10 14 -3 36 -8 50 -10 14 -3 95 -19 180 -36 85 -17 169 -34 185 -36 17 -3 46
-9 65 -15 19 -5 40 -9 46 -9 8 0 11 123 12 423 2 457 2 459 58 554 32 56 108
116 181 143 79 30 256 30 337 0 100 -38 177 -114 214 -212 15 -38 17 -108 20
-558 2 -283 4 -515 5 -516 1 -1 22 -5 47 -9 24 -4 47 -8 50 -10 3 -2 21 -6 40
-9 19 -3 67 -12 105 -20 39 -8 82 -17 95 -19 31 -6 180 -36 240 -48 25 -5 61
-12 80 -15 19 -3 51 -9 70 -15 19 -5 46 -9 60 -9 l25 0 -1 563 c-1 310 2 584
7 610 20 108 92 203 189 250 68 32 100 38 217 39 164 0 279 -60 350 -182 47
-80 47 -78 48 -778 0 -735 -6 -674 69 -686 21 -4 41 -8 45 -10 3 -2 24 -7 46
-10 22 -4 74 -13 115 -22 112 -23 111 -23 154 -30 22 -3 43 -7 47 -9 3 -2 21
-7 40 -10 19 -3 79 -15 134 -26 55 -12 111 -23 125 -25 14 -3 39 -8 55 -12 17
-5 39 -8 49 -7 19 0 19 20 20 765 l1 765 31 66 c52 109 151 185 264 204 49 9
183 8 232 0 53 -10 136 -55 176 -95 30 -31 82 -114 88 -140 0 -3 4 -22 8 -43
5 -21 9 -410 10 -865 l1 -827 160 -32 c88 -17 177 -35 198 -38 82 -13 192 -46
232 -69 102 -60 168 -174 172 -297 1 -42 -2 -91 -7 -110 -5 -19 -11 -49 -14
-67 -14 -95 -99 -202 -200 -252 -102 -50 -137 -49 -461 16 -11 2 -34 7 -51 10
l-31 6 -1 -259 c0 -214 -3 -266 -17 -307 -21 -62 -53 -112 -96 -152 -82 -75
-162 -98 -320 -93 -94 4 -112 8 -170 36 -83 41 -134 92 -173 173 l-31 65 -1
348 c-1 191 -3 349 -5 351 -2 2 -42 11 -89 20 -47 10 -94 19 -105 22 -71 14
-226 44 -254 49 -19 3 -37 8 -40 10 -4 2 -26 6 -51 10 -25 4 -47 8 -50 10 -3
2 -25 6 -50 10 -25 4 -47 8 -50 10 -3 2 -22 6 -42 9 -21 3 -57 10 -80 16 -92
21 -83 62 -83 -382 0 -216 -3 -419 -7 -451 -16 -119 -85 -215 -196 -269 -66
-33 -69 -33 -207 -33 -133 0 -143 1 -197 28 -66 32 -131 94 -161 152 -43 85
-45 113 -46 603 0 257 0 481 0 498 -1 26 -6 33 -28 39 -34 8 -23 6 -223 45
-91 18 -172 33 -180 35 -133 28 -374 74 -376 72 -2 -2 -4 -273 -6 -602 l-3
-600 -24 -58 c-39 -93 -138 -180 -236 -206 -11 -3 -78 -6 -150 -6 -120 0 -134
2 -186 27 -109 51 -192 163 -206 275 -3 26 -6 338 -7 693 l-1 645 -80 17 c-44
9 -93 19 -110 22 -16 3 -62 12 -100 20 -39 8 -82 17 -95 19 -14 3 -92 19 -175
35 -82 17 -161 33 -175 35 -14 3 -41 8 -61 12 l-37 7 0 -750 c0 -413 -3 -765
-7 -784 -22 -98 -103 -196 -201 -243 -52 -25 -74 -29 -175 -33 -181 -7 -283
35 -361 149 -67 98 -65 73 -65 991 0 456 -2 830 -4 832 -2 2 -119 27 -259 55
-270 54 -326 73 -390 134 -107 103 -136 209 -100 380 29 142 67 206 159 270
97 67 185 79 341 47 58 -12 119 -24 135 -27 17 -2 47 -9 69 -14 21 -6 40 -8
43 -5 3 2 6 123 8 268 2 287 6 307 64 391 64 93 163 143 291 146 47 1 86 4 88
5 5 6 97 -14 142 -30z"/>
</g>
</svg>
