<svg version="1" xmlns="http://www.w3.org/2000/svg" width="682.667" height="682.667" viewBox="0 0 512.000000 512.000000"><path d="M117 2.5c-.8.2-4.9.9-9 1.5C61.5 11.5 21.7 46.7 7.6 93 2 111.3 2.1 108.1 2.1 255.5c0 74.8.5 139.1.9 142.8 5.6 42.1 32.2 79.5 69.9 97.9 12.4 6.1 12.8 6.2 20.6 8.4 7.9 2.3 6.6 2 17.5 3.8 8.3 1.3 27.8 1.5 148.5 1.2 76.5-.1 140.8-.6 143-1 33.6-6.3 62.2-23.8 82.1-50.3 5.6-7.4 14.7-24.1 17.7-32.3 2.1-5.9 4.7-15.8 6.3-24.5 1-5.6 1.2-35.8 1-147.5-.1-77.3-.5-141.6-.8-143-.3-1.4-1.3-5.9-2.2-10-2.6-12.1-9.1-27.7-16.6-39.5-1.3-2.2-2.7-4.2-3-4.5-.3-.3-1.7-2.3-3.2-4.5-5.4-7.9-17.5-19.4-28.8-27.5-5.7-4.1-24.4-14.2-27.8-15.1-.8-.2-.9-.2-7.7-2.2-4.5-1.4-7.2-2.1-13-3.3-8.7-1.9-31.2-2.2-151.5-2.2-75.1 0-137.2.2-138 .3zM225 126v32H62V94h163v32zm63 0v32h-16V94h16v32zm32 0v32h-16V94h16v32zm32 0v32h-16V94h16v32zm32 0v32h-16V94h16v32zm32 0v32h-16V94h16v32zm32 0v32h-16V94h16v32zM225 256v32H62v-64h163v32zm63 0v32h-16v-64h16v32zm32 0v32h-16v-64h16v32zm32 0v32h-16v-64h16v32zm32 0v32h-16v-64h16v32zM225 384v32H62v-64h163v32zm63 0v32h-16v-64h16v32zm32 0v32h-16v-64h16v32zm32 0v32h-16v-64h16v32zm32 0v32h-16v-64h16v32zm32 0v32h-16v-64h16v32zm32 0v32h-16v-64h16v32z"/></svg>